<svg width="36" height="36" viewBox="0 0 36 36" fill="none" xmlns="http://www.w3.org/2000/svg">
<path d="M30.7051 2.99997H5.29509C5.00946 2.996 4.72584 3.04834 4.46044 3.15399C4.19503 3.25965 3.95304 3.41655 3.74828 3.61573C3.54353 3.81492 3.38001 4.05249 3.26708 4.31488C3.15414 4.57727 3.094 4.85933 3.09009 5.14497V30.855C3.094 31.1406 3.15414 31.4227 3.26708 31.6851C3.38001 31.9474 3.54353 32.185 3.74828 32.3842C3.95304 32.5834 4.19503 32.7403 4.46044 32.8459C4.72584 32.9516 5.00946 33.0039 5.29509 33H30.7051C30.9907 33.0039 31.2743 32.9516 31.5397 32.8459C31.8051 32.7403 32.0471 32.5834 32.2519 32.3842C32.4566 32.185 32.6202 31.9474 32.7331 31.6851C32.846 31.4227 32.9062 31.1406 32.9101 30.855V5.14497C32.9062 4.85933 32.846 4.57727 32.7331 4.31488C32.6202 4.05249 32.4566 3.81492 32.2519 3.61573C32.0471 3.41655 31.8051 3.25965 31.5397 3.15399C31.2743 3.04834 30.9907 2.996 30.7051 2.99997V2.99997ZM12.1351 28.11H7.63509V14.61H12.1351V28.11ZM9.88509 12.72C9.26448 12.72 8.66929 12.4734 8.23046 12.0346C7.79162 11.5958 7.54509 11.0006 7.54509 10.38C7.54509 9.75936 7.79162 9.16417 8.23046 8.72534C8.66929 8.2865 9.26448 8.03997 9.88509 8.03997C10.2146 8.00259 10.5484 8.03525 10.8644 8.13579C11.1804 8.23633 11.4717 8.4025 11.7191 8.62341C11.9664 8.84432 12.1644 9.11498 12.2999 9.41769C12.4354 9.72039 12.5055 10.0483 12.5055 10.38C12.5055 10.7116 12.4354 11.0395 12.2999 11.3422C12.1644 11.6449 11.9664 11.9156 11.7191 12.1365C11.4717 12.3574 11.1804 12.5236 10.8644 12.6241C10.5484 12.7247 10.2146 12.7573 9.88509 12.72V12.72ZM28.3651 28.11H23.8651V20.865C23.8651 19.05 23.2201 17.865 21.5851 17.865C21.0791 17.8687 20.5864 18.0274 20.1733 18.3197C19.7603 18.6121 19.4468 19.024 19.2751 19.5C19.1577 19.8525 19.1068 20.2238 19.1251 20.595V28.095H14.6251C14.6251 28.095 14.6251 15.825 14.6251 14.595H19.1251V16.5C19.5339 15.7906 20.1284 15.2062 20.8447 14.8098C21.561 14.4133 22.3719 14.2197 23.1901 14.25C26.1901 14.25 28.3651 16.185 28.3651 20.34V28.11Z" fill="#2A9D8F"/>
</svg>
