<svg width="24" height="25" viewBox="0 0 24 25" fill="none" xmlns="http://www.w3.org/2000/svg">
<g id="u:moon">
<path id="Vector" d="M21.6399 13.5C21.4955 13.3807 21.3206 13.3043 21.135 13.2795C20.9493 13.2548 20.7605 13.2827 20.5899 13.36C19.5325 13.8439 18.3828 14.0929 17.2199 14.09C15.0687 14.0874 13.0059 13.2344 11.481 11.7171C9.9562 10.1998 9.09309 8.14111 9.07989 5.99C9.08445 5.31583 9.16836 4.64454 9.32989 3.99C9.36417 3.81554 9.35131 3.63509 9.29265 3.46725C9.23398 3.29941 9.13163 3.15025 8.99613 3.03513C8.86064 2.92001 8.6969 2.8431 8.52179 2.81231C8.34668 2.78153 8.16652 2.79799 7.99989 2.86C6.43222 3.56491 5.06946 4.65676 4.03965 6.03298C3.00984 7.4092 2.34677 9.02462 2.11274 10.7275C1.87871 12.4303 2.0814 14.1647 2.70176 15.7678C3.32213 17.3708 4.3398 18.7898 5.65919 19.8915C6.97858 20.9932 8.55637 21.7414 10.2443 22.0658C11.9323 22.3903 13.675 22.2803 15.3088 21.7462C16.9426 21.2122 18.4139 20.2716 19.5843 19.0128C20.7547 17.754 21.586 16.2183 21.9999 14.55C22.0503 14.359 22.043 14.1573 21.979 13.9705C21.9149 13.7836 21.7969 13.6199 21.6399 13.5ZM12.1399 20.19C10.4617 20.1782 8.82809 19.6479 7.46288 18.6717C6.09767 17.6956 5.06756 16.3213 4.51357 14.7371C3.95959 13.1529 3.90883 11.4362 4.36823 9.822C4.82763 8.20782 5.77475 6.7751 7.07989 5.72V5.99C7.08254 8.67848 8.15171 11.2561 10.0528 13.1571C11.9538 15.0582 14.5314 16.1274 17.2199 16.13C17.9258 16.1326 18.6299 16.0588 19.3199 15.91C18.6298 17.2155 17.5964 18.3078 16.331 19.0691C15.0657 19.8304 13.6166 20.2318 12.1399 20.23V20.19Z" fill="#F0F6F9"/>
</g>
</svg>
